# xmcd
# Track frame offsets:
# 150
# 22282
# 42407
# 63632
# 84333
# 106861
# 129224
# 151706
# 172376
# 192667
#
# Disc length: 2794 seconds
# Revision: 0
# Processed by: cddbd v1.5.1PL2 Copyright (c) Steve Scherf et al.
# Submitted via: VisiTrax 2.9.10.228 - For more info visit www.synapsa.com
#
DISCID=870ae80a
DTITLE=Various Artist - Blues Interlude
DYEAR=1900
DGENRE=
TTITLE0=The Holmes Brothers - Beast Of Burden
TTITLE1=Pinetop Perkins - Too Bad
TTITLE2=Luther Allison - You Can't Always Get Wgat You Want
TTITLE3=Ann Peebles - Tears In Heaven
TTITLE4=Junior Wells - (I Can't Get No) Satisfaction
TTITLE5=Mavis Staples - Gotta Serve Somebody
TTITLE6=Otis Rush - I Can't Quit You Baby
TTITLE7=Joe Lois Walker - Heart Of Stone
TTITLE8=Larry McCray - All Along The Watchtower
TTITLE9=Honeyboy Edwards - Crossroads
EXTD=
EXTT0=
EXTT1=
EXTT2=
EXTT3=
EXTT4=
EXTT5=
EXTT6=
EXTT7=
EXTT8=
EXTT9=
PLAYORDER=
